<?xml version="1.0" encoding="UTF-8"?><svg xmlns="http://www.w3.org/2000/svg" viewBox="0 0 514.62 99"><defs><style>.d{fill:#006e78;}.e{fill:#fff;}.f{fill:#813232;}.g{fill:#e07832;}.h{fill:#e0a928;}.i{fill:#144b37;}.j{fill:#145a46;}.k{fill:#a43237;}.l{fill:#8b322d;}</style></defs><g id="a"/><g id="b"><g id="c"><g><path class="g" d="M234.56,2.84c-5.14-1.8-10.64-2.84-16.39-2.84-27.34,0-49.5,22.16-49.5,49.5s22.16,49.5,49.5,49.5c5.75,0,11.25-1.03,16.39-2.84V2.84Z"/><path class="h" d="M89.1,99c-27.34,0-49.5-22.16-49.5-49.5S61.76,0,89.1,0s49.5,22.16,49.5,49.5-22.16,49.5-49.5,49.5"/><path class="d" d="M49.5,99C22.16,99,0,76.84,0,49.5S22.16,0,49.5,0s49.5,22.16,49.5,49.5-22.16,49.5-49.5,49.5"/><path class="k" d="M148.5,99c-27.34,0-49.5-22.16-49.5-49.5S121.16,0,148.5,0s49.5,22.16,49.5,49.5-22.16,49.5-49.5,49.5"/><path class="f" d="M118.8,89.01c12-9.03,19.8-23.35,19.8-39.53s-7.8-30.5-19.8-39.53c-12,9.03-19.8,23.35-19.8,39.53s7.8,30.5,19.8,39.53"/><path class="l" d="M183.33,84.64c9.05-8.97,14.67-21.4,14.67-35.16s-5.62-26.19-14.67-35.16c-9.05,8.97-14.67,21.4-14.67,35.16s5.62,26.19,14.67,35.16"/><path class="j" d="M99,49.54c0-20.29-12.22-37.71-29.7-45.35-17.47,7.64-29.7,25.06-29.7,45.35s12.22,37.71,29.7,45.35c17.48-7.64,29.7-25.06,29.7-45.35"/><path class="i" d="M506.25,86.3c-.61-.83-.91-1.96-.91-3.37,0-1.48,.29-2.62,.87-3.41,.58-.79,1.42-1.18,2.53-1.18,.56,0,1.1,.15,1.62,.44,.52,.29,.92,.67,1.21,1.14v6c-.65,1.09-1.59,1.63-2.82,1.63-1.05,0-1.88-.42-2.49-1.25m6.53,7.33c1.07-.96,1.6-2.51,1.6-4.64v-12.99h-2.83v.98c-.83-.87-1.93-1.3-3.29-1.3-1.72,0-3.11,.65-4.17,1.94s-1.59,3.06-1.59,5.31,.53,4.13,1.6,5.39c1.07,1.26,2.44,1.89,4.1,1.89,1.45,0,2.56-.48,3.34-1.44v1.22c0,.92-.38,1.65-1.13,2.19-.75,.53-2.09,.86-4.01,.96l1.41,2.17c2.23-.16,3.88-.73,4.94-1.69m-13.37-3.75v-8.29c0-3.95-1.67-5.92-5-5.92-1.52,0-2.72,.55-3.59,1.66v-1.33h-2.83v13.88h2.83v-8.34c0-2.14,1-3.21,2.99-3.21,.83,0,1.5,.27,2.01,.8,.51,.53,.76,1.35,.76,2.46v8.29h2.83Zm-14.78,0v-13.88h-2.83v8.34c0,2.14-1,3.21-2.99,3.21-.83,0-1.5-.27-2.01-.8-.51-.53-.76-1.35-.76-2.46v-8.29h-2.83v8.29c0,3.95,1.67,5.92,5,5.92,1.52,0,2.72-.55,3.59-1.66v1.33h2.83Zm-22.55,0v-8.34c0-2.14,1-3.21,2.99-3.21,.83,0,1.5,.27,2.01,.8,.51,.53,.76,1.35,.76,2.46v8.29h2.83v-8.29c0-3.95-1.67-5.92-5-5.92-1.52,0-2.72,.55-3.58,1.66v-7.06l-2.83,1.3v18.31h2.83Zm-6.06-3.59l-2.69-.84c-.4,1.36-1.27,2.04-2.61,2.04-1,0-1.78-.4-2.34-1.21-.56-.81-.84-1.92-.84-3.33s.29-2.55,.86-3.36c.57-.81,1.38-1.21,2.43-1.21,1.18,0,1.99,.6,2.45,1.79l2.69-.92c-.8-2.39-2.54-3.59-5.24-3.59-1.87,0-3.34,.65-4.43,1.94s-1.63,3.07-1.63,5.34,.54,4.04,1.63,5.32,2.56,1.93,4.43,1.93c2.79,0,4.55-1.3,5.3-3.91m-15.31,2.87c.93-.7,1.4-1.7,1.4-3,0-1.2-.37-2.15-1.1-2.85-.73-.71-1.89-1.32-3.46-1.85-.94-.36-1.63-.67-2.05-.94-.43-.26-.64-.6-.64-1.02s.18-.71,.53-.94c.35-.23,.83-.34,1.43-.34,1.14,0,2.08,.39,2.83,1.17l2.04-1.63c-1.16-1.39-2.78-2.09-4.86-2.09-1.39,0-2.55,.34-3.46,1.02-.92,.68-1.37,1.62-1.37,2.81,0,1.09,.36,1.97,1.07,2.66,.72,.69,1.83,1.29,3.36,1.79,.69,.27,1.19,.47,1.49,.61,.31,.14,.62,.35,.92,.64,.31,.29,.46,.61,.46,.95,0,1-.81,1.49-2.45,1.49-1.12,0-2.18-.47-3.18-1.41l-2.01,1.71c.49,.69,1.21,1.24,2.17,1.64,.96,.41,1.98,.61,3.07,.61,1.61,0,2.88-.35,3.82-1.05m-15.98,.72v-7.8c0-1.29,.28-2.21,.84-2.78,.56-.57,1.22-.86,1.98-.86s1.53,.23,2.2,.68l.41-2.61c-.65-.56-1.43-.84-2.34-.84-1.45,0-2.48,.67-3.1,2.01v-1.68h-2.83v13.88h2.83Zm-14.42-3.57c-.63-.82-.95-1.94-.95-3.35s.32-2.56,.95-3.38c.63-.82,1.48-1.24,2.55-1.24s1.95,.41,2.58,1.24c.63,.83,.95,1.95,.95,3.38s-.32,2.55-.95,3.37c-.63,.81-1.49,1.22-2.58,1.22-1.07,0-1.92-.41-2.55-1.24m8.91-3.35c0-2.26-.57-4.04-1.71-5.34-1.14-1.29-2.69-1.94-4.64-1.94s-3.5,.65-4.63,1.94-1.7,3.07-1.7,5.34,.57,4.04,1.7,5.32,2.68,1.93,4.63,1.93,3.5-.64,4.64-1.93c1.14-1.29,1.71-3.06,1.71-5.32m-14.02-4.51v-2.45h-3.12v-1.71c0-.83,.38-1.25,1.14-1.25,.54,0,1.2,.16,1.98,.49v-2.34c-.87-.44-1.79-.65-2.77-.65-.92,0-1.68,.25-2.28,.73-.6,.49-.9,1.32-.9,2.5v2.23h-2.06v2.45h2.06v11.44h2.83v-11.44h3.12Zm-11.56,10.72c.93-.7,1.4-1.7,1.4-3,0-1.2-.37-2.15-1.1-2.85-.73-.71-1.89-1.32-3.46-1.85-.94-.36-1.62-.67-2.05-.94-.42-.26-.64-.6-.64-1.02s.18-.71,.53-.94c.35-.23,.83-.34,1.43-.34,1.14,0,2.08,.39,2.83,1.17l2.04-1.63c-1.16-1.39-2.78-2.09-4.86-2.09-1.39,0-2.55,.34-3.46,1.02-.91,.68-1.37,1.62-1.37,2.81,0,1.09,.36,1.97,1.07,2.66,.72,.69,1.83,1.29,3.35,1.79,.69,.27,1.19,.47,1.49,.61,.31,.14,.62,.35,.92,.64,.31,.29,.46,.61,.46,.95,0,1-.81,1.49-2.44,1.49-1.12,0-2.18-.47-3.18-1.41l-2.01,1.71c.49,.69,1.21,1.24,2.17,1.64,.96,.41,1.98,.61,3.07,.61,1.61,0,2.88-.35,3.82-1.05m-11.34,.72v-8.29c0-3.95-1.67-5.92-5-5.92-1.52,0-2.72,.55-3.59,1.66v-1.33h-2.82v13.88h2.82v-8.34c0-2.14,1-3.21,2.99-3.21,.83,0,1.5,.27,2.01,.8,.51,.53,.76,1.35,.76,2.46v8.29h2.82Zm-23.01-3.57c-.63-.82-.95-1.94-.95-3.35s.32-2.56,.95-3.38c.63-.82,1.49-1.24,2.55-1.24s1.95,.41,2.58,1.24c.63,.83,.95,1.95,.95,3.38s-.32,2.55-.95,3.37c-.63,.81-1.49,1.22-2.58,1.22-1.07,0-1.92-.41-2.55-1.24m8.91-3.35c0-2.26-.57-4.04-1.71-5.34s-2.69-1.94-4.65-1.94-3.5,.65-4.63,1.94-1.7,3.07-1.7,5.34,.57,4.04,1.7,5.32,2.68,1.93,4.63,1.93,3.5-.64,4.65-1.93,1.71-3.06,1.71-5.32m-15.4-6.96h-2.82v13.88h2.82v-13.88Zm.3-3.88c0-.47-.17-.87-.5-1.21-.33-.33-.74-.5-1.21-.5s-.87,.17-1.21,.5c-.34,.33-.5,.74-.5,1.21s.17,.87,.5,1.21c.33,.34,.74,.5,1.21,.5s.87-.17,1.21-.5c.34-.33,.5-.74,.5-1.21m-6.47,17.47l.35-2.63c-.71,.43-1.4,.65-2.07,.65-.91,0-1.36-.52-1.36-1.58v-7.58h3.29v-2.45h-3.29v-5.73l-2.83,1.36v4.37h-2.15v2.45h2.15v8.31c0,2.3,1.03,3.45,3.1,3.45,1.03,0,1.96-.21,2.8-.62m-18.5-2.45c-.47-.38-.71-.9-.71-1.58,0-.72,.29-1.26,.86-1.62,.57-.35,1.31-.53,2.21-.53,1.12,0,2.11,.23,2.96,.68v2.12c-.89,1-1.98,1.49-3.29,1.49-.89,0-1.57-.19-2.04-.57m8.04,2.74v-8.99c0-1.09-.16-2-.47-2.74-.32-.74-.76-1.28-1.32-1.62-.56-.33-1.11-.56-1.66-.68-.54-.12-1.16-.18-1.85-.18-2.06,0-3.79,.48-5.19,1.44l.84,2.31c1.12-.83,2.45-1.25,3.97-1.25,1.03,0,1.78,.22,2.25,.65s.71,1.17,.71,2.2v.76c-.92-.54-2.06-.82-3.42-.82-1.49,0-2.74,.39-3.78,1.17s-1.55,1.92-1.55,3.42,.46,2.63,1.37,3.44c.91,.81,2.11,1.21,3.57,1.21,1.56,0,2.83-.51,3.8-1.52v1.2h2.72Zm-18.43,0v-7.8c0-1.29,.28-2.21,.84-2.78,.56-.57,1.22-.86,1.98-.86,.8,0,1.53,.23,2.2,.68l.41-2.61c-.65-.56-1.43-.84-2.34-.84-1.45,0-2.48,.67-3.1,2.01v-1.68h-2.83v13.88h2.83Zm-14.87-3.59c-.61-.83-.91-1.96-.91-3.37,0-1.48,.29-2.62,.87-3.41,.58-.79,1.42-1.18,2.53-1.18,.56,0,1.1,.15,1.62,.44,.52,.29,.92,.67,1.21,1.14v6c-.65,1.09-1.59,1.63-2.83,1.63-1.05,0-1.88-.42-2.49-1.25m6.53,7.33c1.07-.96,1.6-2.51,1.6-4.64v-12.99h-2.82v.98c-.83-.87-1.93-1.3-3.29-1.3-1.72,0-3.11,.65-4.17,1.94s-1.59,3.06-1.59,5.31,.53,4.13,1.6,5.39c1.07,1.26,2.43,1.89,4.1,1.89,1.45,0,2.56-.48,3.34-1.44v1.22c0,.92-.38,1.65-1.13,2.19s-2.09,.86-4.01,.96l1.41,2.17c2.23-.16,3.88-.73,4.94-1.69m-13.53-17.63h-2.83v13.88h2.83v-13.88Zm.3-3.88c0-.47-.17-.87-.5-1.21-.33-.33-.74-.5-1.21-.5s-.88,.17-1.21,.5c-.34,.33-.5,.74-.5,1.21s.17,.87,.5,1.21c.33,.34,.74,.5,1.21,.5s.87-.17,1.21-.5c.34-.33,.5-.74,.5-1.21m-7.47-1.25h-2.85l-5.08,11.87c-.24,.6-.42,1.1-.54,1.49-.16-.56-.33-1.06-.52-1.49l-5.11-11.87h-2.85v19.02h2.83v-10.41c0-1.38-.04-2.4-.14-3.07,.31,.94,.71,1.96,1.2,3.07l4.62,10.73,4.59-10.65c.36-.87,.75-1.92,1.17-3.15-.09,.67-.13,1.69-.13,3.07v10.41h2.82v-19.02Z"/><path class="i" d="M506.1,55.47c-.6-.85-.9-1.96-.9-3.34,0-1.47,.29-2.6,.87-3.39,.58-.8,1.4-1.2,2.47-1.2,.67,0,1.25,.15,1.75,.45s.87,.66,1.13,1.07v6.11c-.65,1.05-1.61,1.58-2.88,1.58-1.03,0-1.85-.42-2.45-1.28m5.32,2.64v.98h2.82v-19.61l-2.82,1.3v5.41c-.83-.87-1.93-1.3-3.29-1.3-1.72,0-3.11,.65-4.17,1.94-1.06,1.3-1.59,3.07-1.59,5.31s.52,4.04,1.56,5.34c1.04,1.29,2.44,1.94,4.2,1.94,1.41,0,2.51-.44,3.29-1.3m-11.49,.98v-8.29c0-3.95-1.67-5.92-5-5.92-1.52,0-2.72,.55-3.58,1.66v-1.33h-2.83v13.88h2.83v-8.34c0-2.14,1-3.21,2.99-3.21,.83,0,1.5,.27,2.01,.8,.51,.53,.76,1.35,.76,2.46v8.29h2.83Zm-14.67,0v-13.88h-2.83v8.34c0,2.14-1,3.21-2.99,3.21-.83,0-1.5-.27-2.01-.8-.51-.53-.76-1.35-.76-2.46v-8.29h-2.83v8.29c0,3.95,1.67,5.92,5,5.92,1.52,0,2.72-.55,3.59-1.66v1.33h2.83Zm-20.78-9.43h-6.66v2.72h6.66v-2.72Zm-11.18,8.71c.93-.7,1.4-1.7,1.4-3,0-1.2-.37-2.15-1.1-2.85-.73-.71-1.89-1.32-3.46-1.85-.94-.36-1.63-.67-2.05-.94-.43-.26-.64-.6-.64-1.02s.18-.71,.53-.94,.83-.34,1.43-.34c1.14,0,2.08,.39,2.83,1.17l2.04-1.63c-1.16-1.39-2.78-2.09-4.86-2.09-1.39,0-2.55,.34-3.46,1.02-.92,.68-1.37,1.62-1.37,2.81,0,1.09,.36,1.97,1.07,2.66,.72,.69,1.83,1.29,3.36,1.79,.69,.27,1.19,.47,1.49,.61,.31,.14,.62,.35,.92,.64,.31,.29,.46,.61,.46,.95,0,1-.82,1.49-2.45,1.49-1.12,0-2.18-.47-3.18-1.41l-2.01,1.71c.49,.69,1.21,1.24,2.17,1.64,.96,.41,1.98,.61,3.07,.61,1.61,0,2.88-.35,3.82-1.05m-11.78,.72v-8.29c0-3.95-1.67-5.92-5-5.92-1.52,0-2.72,.55-3.59,1.66v-1.33h-2.83v13.88h2.83v-8.34c0-2.14,1-3.21,2.99-3.21,.83,0,1.5,.27,2.01,.8,.51,.53,.76,1.35,.76,2.46v8.29h2.83Zm-23.44-3.57c-.63-.82-.95-1.94-.95-3.35s.32-2.56,.95-3.38c.63-.82,1.48-1.24,2.55-1.24s1.95,.41,2.58,1.24c.63,.83,.95,1.95,.95,3.38s-.32,2.55-.95,3.37c-.63,.81-1.49,1.22-2.58,1.22s-1.92-.41-2.55-1.24m8.91-3.35c0-2.26-.57-4.04-1.71-5.34-1.14-1.29-2.69-1.94-4.65-1.94s-3.5,.65-4.63,1.94c-1.13,1.3-1.7,3.07-1.7,5.34s.57,4.04,1.7,5.33c1.13,1.29,2.68,1.93,4.63,1.93s3.5-.64,4.65-1.93c1.14-1.29,1.71-3.06,1.71-5.33m-15.84-6.95h-2.82v13.88h2.82v-13.88Zm.3-3.88c0-.47-.17-.87-.5-1.21-.33-.33-.74-.5-1.21-.5s-.87,.17-1.21,.5-.5,.74-.5,1.21,.17,.87,.5,1.21c.33,.34,.74,.5,1.21,.5s.87-.17,1.21-.5c.34-.33,.5-.74,.5-1.21m-6.36,17.47l.35-2.63c-.71,.43-1.39,.65-2.06,.65-.91,0-1.36-.52-1.36-1.58v-7.58h3.29v-2.44h-3.29v-5.73l-2.83,1.36v4.37h-2.15v2.44h2.15v8.31c0,2.3,1.03,3.45,3.1,3.45,1.03,0,1.96-.21,2.8-.63m-18.39-2.45c-.47-.38-.71-.91-.71-1.58,0-.72,.28-1.26,.86-1.62,.57-.35,1.31-.53,2.21-.53,1.12,0,2.11,.23,2.96,.68v2.12c-.89,1-1.98,1.49-3.29,1.49-.89,0-1.57-.19-2.04-.57m8.04,2.74v-8.99c0-1.09-.16-2-.48-2.74-.32-.74-.76-1.28-1.32-1.62-.56-.33-1.11-.56-1.66-.68-.54-.12-1.16-.18-1.85-.18-2.06,0-3.79,.48-5.19,1.44l.84,2.31c1.12-.83,2.44-1.25,3.97-1.25,1.03,0,1.78,.22,2.25,.65,.47,.43,.71,1.17,.71,2.2v.76c-.92-.54-2.06-.82-3.42-.82-1.48,0-2.74,.39-3.78,1.17-1.03,.78-1.55,1.92-1.55,3.42s.46,2.63,1.37,3.44c.92,.81,2.11,1.21,3.57,1.21,1.56,0,2.83-.51,3.8-1.52v1.2h2.72Zm-18.32,0v-7.8c0-1.29,.28-2.21,.84-2.78,.56-.57,1.22-.86,1.98-.86s1.53,.23,2.2,.68l.41-2.61c-.65-.56-1.43-.84-2.34-.84-1.45,0-2.48,.67-3.1,2.01v-1.68h-2.83v13.88h2.83Zm-14.76-3.59c-.61-.83-.91-1.96-.91-3.37,0-1.48,.29-2.62,.87-3.41,.58-.79,1.42-1.18,2.53-1.18,.56,0,1.1,.15,1.62,.43,.52,.29,.92,.67,1.21,1.14v6c-.65,1.09-1.59,1.63-2.83,1.63-1.05,0-1.88-.42-2.48-1.25m6.53,7.33c1.07-.96,1.6-2.51,1.6-4.65v-12.98h-2.83v.98c-.83-.87-1.93-1.3-3.29-1.3-1.72,0-3.11,.65-4.17,1.94-1.06,1.3-1.59,3.07-1.59,5.31s.53,4.13,1.6,5.39c1.07,1.26,2.44,1.89,4.1,1.89,1.45,0,2.56-.48,3.34-1.44v1.22c0,.92-.38,1.65-1.13,2.19-.75,.53-2.09,.86-4.01,.96l1.41,2.17c2.23-.16,3.88-.72,4.94-1.68m-21.5-14.6c.64-.57,1.44-.86,2.4-.86,.85,0,1.58,.29,2.2,.87,.62,.58,.93,1.47,.95,2.66h-6.63c.07-1.21,.43-2.11,1.07-2.68m7.16,9.17l-1.85-1.9c-.73,.94-1.69,1.41-2.88,1.41-.92,0-1.73-.34-2.43-1.03-.7-.69-1.05-1.58-1.07-2.69h9.34c.07-.43,.11-1.04,.11-1.82,0-2.12-.56-3.73-1.68-4.84-1.12-1.1-2.55-1.66-4.29-1.66-1.92,0-3.45,.64-4.59,1.93-1.14,1.29-1.71,3.06-1.71,5.32s.56,4.04,1.7,5.34c1.13,1.29,2.67,1.94,4.61,1.94,2.05,0,3.63-.67,4.75-2.01m-13.31,1.39l.35-2.63c-.71,.43-1.39,.65-2.07,.65-.9,0-1.36-.52-1.36-1.58v-7.58h3.29v-2.44h-3.29v-5.73l-2.83,1.36v4.37h-2.15v2.44h2.15v8.31c0,2.3,1.03,3.45,3.1,3.45,1.03,0,1.97-.21,2.8-.63m-10.49,.3v-8.29c0-3.95-1.67-5.92-5-5.92-1.52,0-2.72,.55-3.59,1.66v-1.33h-2.83v13.88h2.83v-8.34c0-2.14,1-3.21,2.99-3.21,.83,0,1.5,.27,2.01,.8,.51,.53,.76,1.35,.76,2.46v8.29h2.83Zm-14.67-19.02h-2.83v19.02h2.83v-19.02Zm-17.3,19.02v-7.8c0-1.29,.28-2.21,.84-2.78,.56-.57,1.22-.86,1.98-.86s1.53,.23,2.2,.68l.41-2.61c-.65-.56-1.43-.84-2.34-.84-1.45,0-2.48,.67-3.1,2.01v-1.68h-2.82v13.88h2.82Zm-6.63,0v-13.88h-2.83v8.34c0,2.14-1,3.21-2.99,3.21-.83,0-1.5-.27-2.01-.8-.51-.53-.76-1.35-.76-2.46v-8.29h-2.83v8.29c0,3.95,1.67,5.92,5,5.92,1.52,0,2.72-.55,3.59-1.66v1.33h2.83Zm-1.6-17.77c0-.47-.17-.87-.5-1.21-.34-.33-.74-.5-1.21-.5s-.87,.17-1.21,.5-.5,.74-.5,1.21,.17,.87,.5,1.21c.33,.34,.74,.5,1.21,.5s.87-.17,1.21-.5c.33-.33,.5-.74,.5-1.21m-4.89,0c0-.47-.17-.87-.5-1.21-.33-.33-.74-.5-1.21-.5s-.87,.17-1.21,.5c-.33,.33-.5,.74-.5,1.21s.17,.87,.5,1.21c.34,.34,.74,.5,1.21,.5s.88-.17,1.21-.5c.34-.33,.5-.74,.5-1.21m-6.68,6.33v-2.44h-3.12v-1.71c0-.83,.38-1.25,1.14-1.25,.54,0,1.2,.16,1.98,.49v-2.34c-.87-.44-1.79-.65-2.77-.65-.92,0-1.68,.24-2.28,.73-.6,.49-.9,1.32-.9,2.5v2.23h-2.06v2.44h2.06v11.44h2.83v-11.44h3.12Z"/><path class="i" d="M514.62,28.27v-8.96c0-1.76-.46-3.07-1.37-3.94-.92-.87-2.12-1.3-3.63-1.3-1.88,0-3.25,.66-4.1,1.98-.74-1.32-1.97-1.98-3.69-1.98-1.59,0-2.76,.53-3.51,1.6v-1.28h-2.82v13.88h2.82v-8.18c0-1.07,.26-1.9,.79-2.48,.53-.59,1.19-.88,1.98-.88,1.7,0,2.55,1.08,2.55,3.23v8.31h2.83v-8.18c0-1.07,.26-1.9,.79-2.48,.53-.59,1.19-.88,1.98-.88,1.7,0,2.55,1.08,2.55,3.23v8.31h2.83Zm-22.66,0V14.39h-2.83v8.34c0,2.14-1,3.21-2.99,3.21-.83,0-1.5-.27-2.01-.8-.51-.53-.76-1.35-.76-2.46V14.39h-2.83v8.29c0,3.95,1.67,5.92,5,5.92,1.52,0,2.72-.55,3.59-1.66v1.33h2.83Zm-19.5,0v-7.8c0-1.29,.28-2.21,.84-2.78,.56-.57,1.22-.86,1.98-.86s1.53,.23,2.2,.68l.41-2.61c-.65-.56-1.43-.84-2.34-.84-1.45,0-2.48,.67-3.1,2.01v-1.68h-2.83v13.88h2.83Zm-6.85-.3l.35-2.63c-.71,.43-1.39,.65-2.06,.65-.91,0-1.36-.52-1.36-1.58v-7.58h3.29v-2.44h-3.29v-5.73l-2.83,1.36v4.37h-2.15v2.44h2.15v8.31c0,2.3,1.03,3.45,3.1,3.45,1.03,0,1.97-.21,2.8-.62m-10.76,.3v-8.28c0-3.95-1.67-5.92-5-5.92-1.52,0-2.72,.55-3.59,1.66v-1.33h-2.82v13.88h2.82v-8.34c0-2.14,1-3.21,2.99-3.21,.83,0,1.5,.27,2.01,.8,.51,.53,.76,1.35,.76,2.46v8.28h2.82Zm-23.05-10.85c.64-.57,1.44-.86,2.4-.86,.85,0,1.58,.29,2.2,.87,.61,.58,.93,1.47,.95,2.66h-6.63c.07-1.21,.43-2.1,1.07-2.68m7.16,9.17l-1.85-1.9c-.72,.94-1.68,1.41-2.88,1.41-.92,0-1.74-.34-2.43-1.03-.7-.69-1.05-1.58-1.07-2.69h9.35c.07-.43,.11-1.04,.11-1.82,0-2.12-.56-3.73-1.68-4.83-1.12-1.1-2.55-1.66-4.29-1.66-1.92,0-3.45,.64-4.59,1.93-1.14,1.29-1.71,3.06-1.71,5.33s.57,4.04,1.7,5.34c1.13,1.29,2.67,1.94,4.6,1.94,2.05,0,3.63-.67,4.75-2.01m-13.64,1.68v-2.72h-11l11-14.02v-2.28h-14.1v2.72h10.35l-10.98,14.02v2.28h14.72Zm-27.67-.72c.93-.7,1.4-1.7,1.4-3,0-1.2-.37-2.15-1.1-2.85s-1.89-1.32-3.46-1.85c-.94-.36-1.63-.67-2.05-.94-.43-.26-.64-.6-.64-1.02s.18-.71,.53-.94c.35-.23,.83-.34,1.43-.34,1.14,0,2.08,.39,2.83,1.17l2.04-1.63c-1.16-1.39-2.78-2.09-4.86-2.09-1.39,0-2.55,.34-3.46,1.02-.92,.68-1.37,1.62-1.37,2.81,0,1.09,.36,1.97,1.07,2.66,.71,.69,1.83,1.29,3.35,1.79,.69,.27,1.19,.48,1.49,.61,.31,.14,.62,.35,.92,.64,.31,.29,.46,.61,.46,.95,0,1-.81,1.49-2.44,1.49-1.12,0-2.18-.47-3.18-1.41l-2.01,1.71c.49,.69,1.21,1.24,2.17,1.64,.96,.41,1.98,.61,3.07,.61,1.61,0,2.88-.35,3.82-1.05m-20.29-10.13c.64-.57,1.44-.86,2.4-.86,.85,0,1.58,.29,2.2,.87,.62,.58,.93,1.47,.95,2.66h-6.63c.07-1.21,.43-2.1,1.07-2.68m7.16,9.17l-1.85-1.9c-.72,.94-1.68,1.41-2.88,1.41-.92,0-1.74-.34-2.43-1.03-.7-.69-1.06-1.58-1.07-2.69h9.34c.07-.43,.11-1.04,.11-1.82,0-2.12-.56-3.73-1.69-4.83s-2.55-1.66-4.29-1.66c-1.92,0-3.45,.64-4.59,1.93-1.14,1.29-1.71,3.06-1.71,5.33s.57,4.04,1.7,5.34,2.67,1.94,4.6,1.94c2.05,0,3.63-.67,4.75-2.01m-22.9,1.68v-8.34c0-2.14,1-3.21,2.99-3.21,.83,0,1.5,.27,2.01,.8,.51,.53,.76,1.35,.76,2.46v8.28h2.83v-8.28c0-3.95-1.67-5.92-5-5.92-1.52,0-2.72,.55-3.59,1.66v-7.06l-2.83,1.3V28.27h2.83Zm-6.22-3.59l-2.69-.84c-.4,1.36-1.27,2.04-2.61,2.04-1,0-1.77-.4-2.34-1.21-.56-.81-.84-1.92-.84-3.33s.29-2.55,.86-3.35c.57-.81,1.38-1.21,2.43-1.21,1.18,0,1.99,.6,2.45,1.79l2.69-.92c-.8-2.39-2.54-3.58-5.24-3.58-1.87,0-3.34,.65-4.43,1.94-1.09,1.29-1.63,3.07-1.63,5.34s.54,4.04,1.63,5.32c1.09,1.29,2.56,1.93,4.43,1.93,2.79,0,4.55-1.3,5.3-3.91m-15.47,2.87c.93-.7,1.4-1.7,1.4-3,0-1.2-.37-2.15-1.1-2.85-.73-.71-1.89-1.32-3.46-1.85-.94-.36-1.63-.67-2.05-.94-.43-.26-.64-.6-.64-1.02s.18-.71,.53-.94c.35-.23,.83-.34,1.43-.34,1.14,0,2.08,.39,2.83,1.17l2.04-1.63c-1.16-1.39-2.78-2.09-4.86-2.09-1.39,0-2.55,.34-3.46,1.02-.92,.68-1.37,1.62-1.37,2.81,0,1.09,.36,1.97,1.07,2.66,.72,.69,1.83,1.29,3.36,1.79,.69,.27,1.19,.48,1.49,.61,.31,.14,.62,.35,.92,.64,.31,.29,.46,.61,.46,.95,0,1-.82,1.49-2.45,1.49-1.12,0-2.18-.47-3.18-1.41l-2.01,1.71c.49,.69,1.21,1.24,2.17,1.64,.96,.41,1.98,.61,3.07,.61,1.61,0,2.88-.35,3.82-1.05m-12.13,.42l.35-2.63c-.71,.43-1.39,.65-2.06,.65-.91,0-1.36-.52-1.36-1.58v-7.58h3.29v-2.44h-3.29v-5.73l-2.83,1.36v4.37h-2.15v2.44h2.15v8.31c0,2.3,1.03,3.45,3.1,3.45,1.03,0,1.96-.21,2.8-.62m-11.44,.3V14.39h-2.83v8.34c0,2.14-1,3.21-2.99,3.21-.83,0-1.5-.27-2.01-.8-.51-.53-.76-1.35-.76-2.46V14.39h-2.83v8.29c0,3.95,1.67,5.92,5,5.92,1.52,0,2.72-.55,3.59-1.66v1.33h2.83Zm-22.91-10.85c.64-.57,1.44-.86,2.4-.86,.85,0,1.58,.29,2.2,.87,.61,.58,.93,1.47,.95,2.66h-6.63c.07-1.21,.43-2.1,1.07-2.68m7.16,9.17l-1.85-1.9c-.72,.94-1.68,1.41-2.88,1.41-.92,0-1.73-.34-2.43-1.03-.7-.69-1.05-1.58-1.07-2.69h9.34c.07-.43,.11-1.04,.11-1.82,0-2.12-.56-3.73-1.68-4.83-1.12-1.1-2.55-1.66-4.29-1.66-1.92,0-3.45,.64-4.59,1.93-1.14,1.29-1.71,3.06-1.71,5.33s.57,4.04,1.7,5.34,2.67,1.94,4.6,1.94c2.05,0,3.63-.67,4.75-2.01m-26.02-.98V11.92h3.15c1.81,0,3.18,.66,4.1,2,.92,1.33,1.39,2.95,1.39,4.85,0,.85-.1,1.66-.3,2.43-.2,.77-.52,1.5-.95,2.17-.44,.68-1.04,1.22-1.82,1.63-.78,.41-1.68,.61-2.72,.61h-2.85Zm-2.83,2.66h5.22c1.67,0,3.12-.28,4.36-.86,1.24-.57,2.2-1.33,2.87-2.28,.67-.95,1.16-1.96,1.48-3.02,.32-1.06,.48-2.18,.48-3.35s-.17-2.39-.5-3.48c-.33-1.09-.85-2.09-1.53-3.02-.69-.92-1.63-1.66-2.84-2.2-1.2-.54-2.6-.81-4.2-.81h-5.32V28.27Z"/><path class="l" d="M183.33,84.76c9.05-8.97,14.67-21.41,14.67-35.16s-5.62-26.19-14.67-35.16c-9.05,8.97-14.67,21.41-14.67,35.16s5.62,26.19,14.67,35.16"/><path class="e" d="M43.73,64.14c.33,.06,1.15,.08,2.48,.08,2,0,3.68-.29,5.04-.87,1.02-.44,1.88-1.04,2.59-1.8,1.18-1.25,2.07-2.88,2.67-4.88,.65-2.18,.98-4.84,.98-7.98,0-3.45-.46-6.32-1.39-8.6-.93-2.28-2.23-3.96-3.91-5.04-1.68-1.08-3.69-1.62-6.04-1.62-1.13,0-1.94,.02-2.42,.06v30.66Zm2.81-33.9c3.03,0,5.57,.24,7.6,.71,2.03,.47,3.84,1.22,5.42,2.23,1.58,1.02,2.86,2.23,3.83,3.64,.97,1.41,1.69,3.04,2.17,4.91,.47,1.86,.71,3.97,.71,6.31,0,2.83-.33,5.38-.99,7.63-.66,2.25-1.66,4.18-2.99,5.78-1.18,1.43-2.63,2.62-4.35,3.54-1.72,.93-3.69,1.58-5.93,1.96-1.93,.33-4.35,.49-7.28,.49h-12.37v-1.8c.67-.18,1.2-.38,1.6-.58,.39-.21,.68-.5,.87-.87,.19-.37,.31-.84,.37-1.42,.06-.57,.08-1.29,.08-2.17v-23.49c0-.85-.02-1.57-.07-2.15-.05-.58-.16-1.05-.35-1.42-.19-.36-.48-.66-.87-.89-.39-.23-.93-.43-1.62-.61v-1.8h14.17Z"/><path class="e" d="M87.52,51.06c-.07-2.78-.44-4.85-1.09-6.21-.65-1.36-1.71-2.04-3.16-2.04s-2.51,.71-3.34,2.13c-.83,1.42-1.32,3.46-1.48,6.13h9.08Zm7.36,11.42c-1.85,1.96-3.69,3.35-5.5,4.17-1.82,.82-3.91,1.23-6.27,1.23-4.23,0-7.42-1.16-9.55-3.47-2.14-2.32-3.2-5.75-3.2-10.31,0-2.94,.55-5.48,1.65-7.62,1.1-2.14,2.66-3.75,4.67-4.85,2.02-1.1,4.36-1.65,7.03-1.65,1.65,0,3.1,.19,4.35,.57,1.24,.38,2.31,.91,3.2,1.59,.89,.68,1.63,1.5,2.21,2.47,.69,1.15,1.21,2.45,1.55,3.92,.36,1.51,.55,3.33,.57,5.48h-17.28c.02,3.29,.6,5.71,1.76,7.26,1.15,1.55,2.91,2.33,5.27,2.33,1.38,0,2.62-.26,3.73-.78,1.11-.52,2.31-1.43,3.6-2.74l2.21,2.4Z"/><path class="e" d="M114.61,64.19h7.79c1,0,1.83-.2,2.51-.61,.67-.41,1.25-1.05,1.75-1.93,.49-.88,1-2.41,1.53-4.59h3.71v10.38h-27.31v-1.8l17.44-32.16h-7.39c-1.2,0-2.14,.22-2.83,.65-.69,.44-1.28,1.13-1.77,2.1-.49,.96-.92,2.24-1.28,3.84h-3.73v-9.84h27.04v1.8l-17.44,32.16Z"/><path class="e" d="M151.85,60.6c0,.64,.02,1.23,.05,1.77,.04,.54,.11,.99,.22,1.33,.11,.34,.27,.64,.48,.87,.21,.24,.49,.44,.86,.61,.36,.17,.81,.32,1.33,.45v1.8h-14.31v-1.8c.67-.18,1.2-.38,1.59-.58,.39-.21,.68-.5,.87-.87,.19-.37,.31-.84,.37-1.42,.05-.57,.08-1.29,.08-2.17v-23.52c0-.87-.02-1.59-.07-2.15-.04-.56-.16-1.03-.35-1.4s-.48-.67-.87-.89c-.39-.22-.93-.42-1.62-.6v-1.8h14.31v1.8c-.74,.2-1.29,.42-1.65,.64-.35,.23-.62,.5-.8,.83-.18,.33-.31,.75-.38,1.28-.07,.53-.11,1.3-.11,2.32v23.49Z"/><path class="e" d="M205.82,32.04c-.96,.27-1.62,.57-1.96,.89-.35,.32-.59,.75-.72,1.28-.14,.54-.21,1.48-.21,2.85v23.57c0,1.11,.06,1.99,.16,2.63,.11,.64,.33,1.14,.67,1.47,.33,.34,1.02,.64,2.06,.91v1.8h-13.98v-1.8c.8-.22,1.35-.41,1.66-.57,.31-.16,.55-.38,.72-.64,.17-.26,.3-.66,.38-1.2,.08-.54,.12-1.42,.12-2.66v-13.35c0-1.47,.03-3.21,.08-5.2,.05-2,.11-3.42,.16-4.25h-.57c-.22,.73-.45,1.44-.7,2.14-.24,.7-.7,1.95-1.38,3.75l-7.3,19.68h-4.8l-7.69-22.1c-.46-1.25-.85-2.5-1.2-3.73h-.49c.18,3,.27,6.54,.27,10.63v12.54c0,1.34,.06,2.28,.19,2.81,.13,.53,.38,.96,.76,1.31,.38,.34,1.05,.64,1.99,.87v1.8h-10.3v-1.8c.67-.18,1.2-.38,1.59-.6,.39-.22,.69-.51,.89-.87,.2-.36,.32-.83,.37-1.39,.05-.56,.07-1.28,.07-2.15v-23.57c0-1.38-.06-2.33-.18-2.83-.12-.51-.35-.93-.69-1.25-.35-.33-1.03-.63-2.04-.93v-1.8h13.55l7.55,22.37,8.18-22.37h12.78v1.8Z"/><path class="g" d="M253.15,93.19c-1.32,0-2.38-1.07-2.38-2.39V8.1c0-1.32,1.07-2.39,2.38-2.39s2.38,1.07,2.38,2.39V90.81c0,1.32-1.07,2.39-2.38,2.39"/></g></g></g></svg>